<svg xmlns="http://www.w3.org/2000/svg" width="256" height="256" viewBox="0 0 100 100"><rect width="100" height="100" rx="20" fill="#c8a878"></rect><path fill="#0d0c0b" d="M46.38 83.13Q43.33 83.13 39.34 82.81L39.34 82.81Q37.87 82.71 35.62 82.60Q33.36 82.50 30.63 82.50L30.63 82.50L23.49 82.60Q21.60 82.71 18.24 82.71L18.24 82.71Q18.03 82.71 18.03 82.08Q18.03 81.45 18.24 81.45L18.24 81.45Q22.23 81.45 24.07 80.92Q25.90 80.40 26.59 78.88Q27.27 77.35 27.27 74.20L27.27 74.20L27.27 25.59Q27.27 22.44 26.64 20.97Q26.01 19.50 24.17 18.92Q22.33 18.34 18.34 18.34L18.34 18.34Q18.13 18.34 18.13 17.71Q18.13 17.08 18.34 17.08L18.34 17.08L23.59 17.19Q28.00 17.40 30.63 17.40L30.63 17.40Q34.62 17.40 38.50 17.08L38.50 17.08Q43.12 16.87 44.91 16.87L44.91 16.87Q55.83 16.87 64.23 21.07Q72.63 25.27 77.30 32.52Q81.97 39.76 81.97 48.79L81.97 48.79Q81.97 58.98 77.20 66.80Q72.42 74.62 64.23 78.88Q56.04 83.13 46.38 83.13L46.38 83.13ZM45.33 81.55Q53.73 81.55 60.24 78.03Q66.75 74.52 70.37 67.64Q73.99 60.76 73.99 51.10L73.99 51.10Q73.99 41.97 70.53 34.51Q67.06 27.06 60.66 22.75Q54.25 18.45 45.85 18.45L45.85 18.45Q41.34 18.45 38.87 18.97Q36.40 19.50 35.25 21.07Q34.09 22.65 34.09 25.80L34.09 25.80L34.09 73.05Q34.09 76.20 34.98 77.98Q35.88 79.77 38.34 80.66Q40.81 81.55 45.33 81.55L45.33 81.55Z"></path></svg>